<?xml version="1.0" standalone="no"?>
<!DOCTYPE svg PUBLIC "-//W3C//DTD SVG 20010904//EN"
 "http://www.w3.org/TR/2001/REC-SVG-20010904/DTD/svg10.dtd">
<svg version="1.0" xmlns="http://www.w3.org/2000/svg"
 width="336.000000pt" height="334.000000pt" viewBox="0 0 336.000000 334.000000"
 preserveAspectRatio="xMidYMid meet">

<g transform="translate(0.000000,334.000000) scale(0.100000,-0.100000)"
fill="#000000" stroke="none">
<path d="M50 2805 l0 -135 110 0 110 0 0 -505 0 -505 135 0 135 0 0 505 0 505
1375 0 1375 0 0 135 0 135 -1620 0 -1620 0 0 -135z"/>
<path d="M1010 2589 c-115 -19 -233 -94 -300 -191 -202 -287 -32 -681 315
-731 328 -47 603 258 520 578 -47 178 -199 315 -385 345 -73 11 -74 11 -150
-1z m162 -221 c53 -16 132 -88 153 -140 27 -66 24 -145 -9 -212 -114 -232
-475 -154 -476 103 0 74 17 124 59 172 65 77 173 107 273 77z"/>
<path fill="red" d="M1842 2589 c-48 -14 -116 -86 -136 -145 -19 -56 -24 -131 -31 -511
l-5 -273 115 0 114 0 3 303 c3 297 3 303 27 343 39 69 78 84 220 84 l121 0 0
105 0 105 -197 -1 c-109 0 -213 -5 -231 -10z"/>
<path  d="M2730 2589 c-84 -14 -189 -69 -251 -131 -185 -185 -185 -474 0 -658
267 -267 725 -124 791 249 7 38 10 76 7 85 -6 15 -33 16 -244 14 l-238 -3 -3
-97 -3 -97 100 -3 101 -3 -36 -24 c-167 -115 -396 4 -396 205 0 80 25 135 82
187 76 68 181 87 269 47 36 -17 65 -20 177 -20 74 0 134 4 134 9 0 17 -76 110
-115 142 -58 46 -150 87 -225 98 -73 12 -74 12 -150 0z"/>
<path d="M1650 1254 c0 -73 16 -104 22 -42 3 27 8 33 37 41 65 16 62 36 59
-379 l-3 -377 -22 -15 c-13 -8 -23 -24 -23 -36 0 -20 5 -21 75 -21 74 0 75 0
75 26 0 18 -6 28 -20 32 -20 5 -20 12 -18 389 l3 383 39 -2 c43 -3 56 -15 56
-51 0 -13 4 -20 10 -17 6 3 10 37 10 74 l0 69 -150 0 -150 -1 0 -73z"/>
<path d="M830 1211 c0 -5 12 -11 28 -13 l27 -3 3 -225 c2 -200 1 -226 -14
-237 -12 -9 -22 -9 -35 -2 -16 8 -19 6 -19 -16 0 -32 25 -33 70 -2 72 48 75
59 78 260 3 218 4 227 37 227 14 0 25 5 25 10 0 6 -40 10 -100 10 -55 0 -100
-4 -100 -9z"/>
<path d="M1118 1082 c-60 -15 -74 -28 -35 -34 21 -3 22 -9 27 -106 4 -88 8
-106 24 -118 31 -22 81 -17 115 12 30 25 31 25 31 5 0 -19 6 -21 60 -21 66 0
74 5 34 21 l-27 10 5 122 6 123 -59 -14 c-57 -14 -79 -32 -40 -32 22 0 32 -43
24 -113 -9 -73 -66 -103 -99 -52 -14 22 -16 41 -10 120 4 52 6 94 4 94 -2 -1
-29 -8 -60 -17z"/>
<path d="M1506 1085 c-42 -15 -52 -26 -63 -64 -11 -43 16 -73 84 -93 64 -19
80 -36 63 -69 -25 -45 -112 -28 -118 24 -6 51 -31 19 -32 -40 0 -18 7 -23 45
-29 97 -14 166 22 168 88 1 48 -23 75 -76 83 -55 9 -77 22 -77 43 0 27 20 42
55 42 35 0 55 -15 55 -42 0 -10 4 -18 9 -18 10 0 21 69 12 74 -22 13 -92 14
-125 1z"/>
<path d="M2265 813 c-37 -6 -58 -23 -27 -23 22 0 22 -3 22 -136 0 -127 -1
-136 -20 -141 -43 -11 -17 -23 50 -23 67 0 93 12 50 23 -19 5 -20 14 -20 156
0 115 -3 151 -12 150 -7 -1 -26 -4 -43 -6z"/>
<path d="M1065 695 c-31 -10 -36 -14 -22 -20 14 -6 17 -20 17 -86 0 -64 -3
-80 -17 -88 -14 -8 -3 -10 45 -11 l62 0 -20 20 c-15 15 -20 33 -20 75 0 42 5
60 20 75 24 24 34 25 54 4 24 -23 22 -149 -1 -163 -14 -8 -2 -10 47 -11 61 0
63 1 42 16 -19 13 -22 24 -22 79 0 57 3 66 24 80 49 32 73 -12 64 -120 l-5
-55 46 0 c36 1 42 3 29 11 -15 8 -18 24 -18 93 0 68 -3 86 -18 99 -25 23 -64
21 -94 -2 -24 -20 -25 -20 -41 0 -20 22 -64 24 -91 4 -25 -19 -34 -19 -38 -1
-2 11 -10 11 -43 1z"/>
<path d="M1500 688 c-78 -53 -55 -187 36 -204 40 -7 104 12 104 32 0 11 -6 11
-27 3 -35 -13 -76 4 -92 37 -18 40 -14 43 57 46 65 3 67 4 70 30 5 39 -36 78
-81 78 -19 0 -49 -10 -67 -22z m78 -10 c7 -7 12 -22 12 -35 0 -20 -5 -23 -40
-23 -45 0 -53 19 -23 52 19 21 34 23 51 6z"/>
<path d="M2013 696 c-19 -9 -33 -23 -33 -32 0 -16 1 -16 18 -1 23 21 56 22 76
1 24 -23 19 -43 -11 -50 -56 -12 -68 -16 -90 -30 -27 -17 -30 -55 -7 -78 19
-20 63 -20 88 -1 25 19 36 19 36 0 0 -11 12 -15 50 -15 50 0 67 13 30 23 -18
5 -20 14 -20 85 0 58 -4 83 -15 92 -22 19 -87 22 -122 6z m77 -126 c0 -23 -5
-31 -25 -36 -50 -12 -68 37 -21 56 37 15 46 11 46 -20z"/>
</g>
</svg>
